<svg width="256" height="256" viewBox="0 0 256 256" fill="none" xmlns="http://www.w3.org/2000/svg">
<mask id="mask0_130_36" style="mask-type:luminance" maskUnits="userSpaceOnUse" x="0" y="0" width="256" height="256">
<path d="M256 0H0V256H256V0Z" fill="white"/>
</mask>
<g mask="url(#mask0_130_36)">
<path d="M136.94 192.659C135.676 192.02 134.254 191.686 132.809 191.686C131.364 191.686 129.942 192.02 128.678 192.659C127.462 193.3 126.468 194.24 125.807 195.371C125.086 196.614 124.723 198.003 124.754 199.409C124.725 200.823 125.089 202.219 125.811 203.47C126.46 204.603 127.453 205.541 128.67 206.175C129.94 206.803 131.362 207.132 132.807 207.132C134.252 207.132 135.674 206.803 136.944 206.175C138.171 205.546 139.171 204.607 139.823 203.47C140.545 202.219 140.909 200.823 140.88 199.409C140.911 198.003 140.548 196.614 139.827 195.371C139.159 194.24 138.159 193.301 136.94 192.659Z" fill="#28D0D8"/>
<path d="M215.438 138.396C224.888 138.396 229.612 133.181 229.612 122.752V37.0268C229.612 26.5999 224.888 21.3852 215.438 21.3828C205.988 21.3804 201.262 26.5951 201.26 37.0268V122.737C201.26 133.176 205.986 138.396 215.438 138.396Z" fill="#28D0D8"/>
<path d="M163.48 204.05C163.457 204.518 163.56 204.983 163.782 205.404C164.003 205.826 164.335 206.192 164.748 206.469C165.659 207.096 166.99 207.415 168.7 207.415C170.187 207.455 171.655 207.101 172.927 206.396C174.07 205.721 174.954 204.737 175.455 203.583V200.893H168.792C164.028 200.893 163.48 202.694 163.48 204.05Z" fill="#28D0D8"/>
<path d="M244.073 191.64C243.115 191.614 242.161 191.761 241.266 192.072C240.371 192.383 239.552 192.852 238.856 193.453C237.626 194.512 236.821 195.916 236.57 197.441H251.623C251.372 195.916 250.567 194.512 249.337 193.453C248.634 192.849 247.807 192.378 246.904 192.067C246 191.756 245.038 191.611 244.073 191.64Z" fill="#28D0D8"/>
<path d="M256 0.464844H230.319C236.731 2.14466 242.047 5.0366 246.267 9.14066C251.266 14.0182 254.51 20.3024 256 27.9932V131.755C254.505 139.46 251.261 145.751 246.267 150.626C239.139 157.579 228.863 161.056 215.437 161.056C202.012 161.056 191.734 157.579 184.604 150.626C177.471 143.682 173.906 133.855 173.908 121.147V38.616C173.908 25.9195 177.474 16.0944 184.604 9.14066C188.813 5.03176 194.129 2.13982 200.551 0.464844H156.712V23.1967H109.466V67.4278H147.015V90.1016H109.466V136.584H156.712V159.244H82.1115V0.464844H0V256.465H281.76V0.464844H256ZM102.063 209.333C100.21 210.526 97.6416 211.146 94.429 211.146C92.473 211.146 90.5286 210.873 88.6639 210.334C87.0741 209.918 85.5886 209.224 84.2903 208.289L83.8013 207.927L86.0079 204.403L86.7156 204.91C87.7707 205.635 88.9559 206.187 90.2185 206.542C91.6548 206.969 93.1566 207.186 94.6676 207.183C96.6555 207.183 98.1425 206.912 99.0411 206.375C99.4222 206.168 99.7345 205.87 99.9446 205.514C100.155 205.158 100.255 204.756 100.234 204.352C100.252 204.103 100.208 203.854 100.105 203.623C100.003 203.392 99.8441 203.185 99.6415 203.018C99.0937 202.601 98.4535 202.298 97.7648 202.13C96.6524 201.854 95.5242 201.635 94.3853 201.473C92.7741 201.216 91.181 200.872 89.6141 200.444C88.3365 200.072 87.1878 199.402 86.2823 198.5C85.3241 197.547 84.839 196.238 84.839 194.61C84.8261 193.634 85.0726 192.669 85.5572 191.799C86.0419 190.928 86.7503 190.177 87.6222 189.611C89.4074 188.367 91.8844 187.74 94.9896 187.74C96.6102 187.742 98.2235 187.937 99.7886 188.32C101.211 188.634 102.568 189.158 103.804 189.872L104.393 190.234L102.246 193.831L101.538 193.385C99.6152 192.208 97.3409 191.6 95.0254 191.645C93.1527 191.645 91.7452 191.931 90.8467 192.504C90.4678 192.712 90.1553 193.007 89.9404 193.359C89.7255 193.711 89.6158 194.109 89.6221 194.512C89.6062 194.781 89.6545 195.05 89.7637 195.301C89.8728 195.551 90.0402 195.777 90.2542 195.963C90.7917 196.401 91.4345 196.719 92.1309 196.891C93.2916 197.183 94.4689 197.418 95.6576 197.594C97.2262 197.851 98.7779 198.188 100.305 198.602C101.556 198.958 102.682 199.605 103.574 200.48C104.516 201.408 104.997 202.655 104.997 204.25C105.022 205.255 104.766 206.249 104.252 207.139C103.739 208.028 102.985 208.783 102.063 209.333ZM143.997 205.505C142.949 207.247 141.388 208.686 139.489 209.66C137.516 210.651 135.295 211.157 133.044 211.128C131.112 211.153 129.203 210.752 127.477 209.961C126.482 209.492 125.577 208.88 124.797 208.148V218.883H120.074V187.889H124.686V190.789C125.464 190.049 126.366 189.426 127.358 188.944C129.119 188.109 131.079 187.685 133.063 187.711C135.304 187.683 137.514 188.182 139.481 189.161C141.391 190.131 142.963 191.572 144.017 193.32C145.088 195.197 145.647 197.282 145.647 199.398C145.647 201.514 145.088 203.599 144.017 205.476L143.997 205.505ZM180.206 210.925H175.59V208.833C174.975 209.347 174.281 209.777 173.531 210.109C171.866 210.819 170.044 211.168 168.207 211.128C165.392 211.128 163.106 210.494 161.408 209.246C160.562 208.641 159.884 207.863 159.427 206.975C158.97 206.088 158.747 205.115 158.776 204.134C158.743 203.189 158.948 202.249 159.375 201.386C159.801 200.523 160.438 199.761 161.237 199.157C162.851 197.909 165.296 197.304 168.7 197.304H175.459V196.695C175.459 195.016 174.982 193.794 173.992 192.953C173.002 192.112 171.499 191.684 169.519 191.684C168.132 191.681 166.754 191.897 165.448 192.323C164.235 192.705 163.113 193.293 162.14 194.056L161.424 194.614L159.162 191.199L159.663 190.811C161.017 189.786 162.575 189.008 164.251 188.519C166.048 187.985 167.927 187.717 169.817 187.725C173.097 187.725 175.674 188.501 177.467 190.031C179.276 191.579 180.194 193.86 180.194 196.815L180.206 210.925ZM201.112 203.485C201.778 204.614 202.786 205.545 204.014 206.168C205.313 206.819 206.775 207.15 208.257 207.129C209.494 207.135 210.717 206.887 211.835 206.404C212.922 205.928 213.844 205.188 214.499 204.265L214.932 203.674L218.574 205.929L218.177 206.502C217.189 207.996 215.747 209.196 214.026 209.957C212.217 210.744 210.233 211.141 208.229 211.117C205.905 211.149 203.611 210.637 201.565 209.631C199.618 208.655 198.008 207.202 196.917 205.436C195.813 203.584 195.235 201.511 195.235 199.403C195.235 197.296 195.813 195.222 196.917 193.37C198.02 191.617 199.634 190.178 201.581 189.212C203.627 188.206 205.921 187.695 208.245 187.725C210.258 187.697 212.25 188.095 214.066 188.889C215.777 189.652 217.21 190.849 218.193 192.337L218.59 192.91L214.948 195.169L214.511 194.592C213.851 193.661 212.928 192.91 211.839 192.417C210.722 191.93 209.498 191.682 208.261 191.692C206.78 191.672 205.318 192.001 204.018 192.649C202.788 193.277 201.782 194.215 201.12 195.35C200.426 196.614 200.064 198.008 200.064 199.421C200.064 200.835 200.426 202.229 201.12 203.493L201.112 203.485ZM256 201.016H236.57C236.813 202.649 237.697 204.146 239.058 205.229C240.649 206.509 242.597 207.129 245.022 207.129C246.31 207.141 247.586 206.915 248.776 206.466C249.898 206.028 250.898 205.367 251.702 204.53L252.286 203.928L255.097 206.879L254.676 207.339C253.537 208.587 252.083 209.562 250.438 210.182C248.686 210.829 246.809 211.151 244.919 211.128C242.535 211.166 240.18 210.648 238.076 209.623C236.119 208.649 234.496 207.198 233.389 205.432C232.257 203.594 231.678 201.515 231.711 199.407C231.672 197.311 232.219 195.241 233.301 193.392C234.336 191.651 235.88 190.207 237.762 189.219C239.684 188.215 241.866 187.699 244.08 187.725C246.287 187.698 248.462 188.214 250.374 189.219C252.221 190.213 253.734 191.65 254.748 193.374C255.315 194.332 255.732 195.359 255.984 196.423L256 201.016Z" fill="#28D0D8"/>
</g>
</svg>
